<svg style="width:100%" xmlns="http://www.w3.org/2000/svg" xmlns:xlink="http://www.w3.org/1999/xlink" viewBox="0 0 1040 1508">
<style>
.image-mapper-shape {
    fill: rgba(0, 0, 0, 0);
    stroke: transparent;
    transition: all 0.2s ease;
}
/* Remove default hover effects - handled by CSS classes */
</style>
        
<image xlink:href="./uiuc-campus-map.png" style="width: 1040px;"></image>
<a xlink:href="/beckman-institute/" target="---" xlink:title="Beckman Institute">
<g>
<polygon class="image-mapper-shape" data-index="1" points="411 25 512.712 24 512 46 488 45 488 69 385 69 385.178 53.1779 411.1 53.0071"></polygon>
</g>
</a>
<a xlink:href="#" target="---" xlink:title="">
<g>
<polygon class="image-mapper-shape" data-index="2" points="877.563 1069.57"></polygon>
</g>
</a>
<a xlink:href="#" target="---" xlink:title="">
<g>
<polygon class="image-mapper-shape" data-index="3" points="710.296 94.2349 756.235 94.2349 757.413 124.861 711.474 124.861"></polygon>
</g>
</a>
<a xlink:href="/richmond-studio/" target="---" xlink:title="Richmond Studio">
<g>
<rect x="732.6763870340842" y="134.28473974579677" width="11.7793631355961" height="12.95729944915584" class="image-mapper-shape" data-index="5"></rect>
</g>
</a>
<a xlink:href="/siebel-center-computer-science/" target="---" xlink:title="Siebel Center for Computer Science">
<g>
<polygon class="image-mapper-shape" data-index="6" points="593.68 180.224 592.502 224.986 601.925 241.477 671.424 239.121 683.203 229.698 684.381 202.605 617.239 220.274 616.061 180.224"></polygon>
</g>
</a>
<a xlink:href="/coordinated-science-lab/" target="---" xlink:title="Coordinated Science Lab">
<g>
<rect x="488.84357012724263" y="96.5907777118889" width="24.736662584752025" height="58.89681567798104" class="image-mapper-shape" data-index="7"></rect>
</g>
</a>
<a xlink:href="/digital-computer-lab/" target="---" xlink:title="Digital Computer Lab">
<g>
<rect x="475.8862706780868" y="269.74741580515314" width="90.7010961440908" height="50.651261483063706" class="image-mapper-shape" data-index="9"></rect>
</g>
</a>
<a xlink:href="/electrical-computer-engineering-building/" target="---" xlink:title="Electrical and Computer Engineering Building">
<g>
<rect x="367.5161298306017" y="94.23490508476966" width="54.18507042374256" height="54.185070423742545" class="image-mapper-shape" data-index="11"></rect>
</g>
</a>
<a xlink:href="/psychology-building/" target="---" xlink:title="Psychology Building">
<g>
<rect x="243.83281690684151" y="808.0643111018999" width="31.80428046610973" height="36.51602572034824" class="image-mapper-shape" data-index="12"></rect>
</g>
</a>
<a xlink:href="/ice-arena/" target="---" xlink:title="Ice Arena">
<g>
<rect x="45.93951622882522" y="952.9504776697332" width="49.47332516950407" height="51.82919779662325" class="image-mapper-shape" data-index="13"></rect>
</g>
</a>
<a xlink:href="/armory/" target="---" xlink:title="Armory">
<g>
<rect x="49.47332516950407" y="1044.8295101273836" width="122.50537661020056" height="75.38792406781567" class="image-mapper-shape" data-index="14"></rect>
</g>
</a>
<a xlink:href="/armory/" target="---" xlink:title="Armory">
<g>
<rect x="186.11393754242008" y="1063.6764911443377" width="24.736662584752054" height="38.87189834746732" class="image-mapper-shape" data-index="15"></rect>
</g>
</a>
<a xlink:href="/library/" target="---" xlink:title="Library">
<g>
<polygon class="image-mapper-shape" data-index="17" points="378.118 1051.9 379.296 1127.29 310.975 1127.29 309.797 1101.37 274.459 1102.55 273.281 1076.63 306.263 1075.46 305.086 1051.9"></polygon>
</g>
</a>
<a xlink:href="/gies-college-business-instructional-facility/" target="---" xlink:title="Gies College of Business Instructional Facility">
<g>
<polygon class="image-mapper-shape" data-index="18" points="149.598 1154.38 210.851 1155.56 213.206 1230.94 197.893 1232.12 194.359 1188.54 168.445 1186.18 167.267 1222.7 155.488 1230.94 144.886 1214.45 151.954 1188.54"></polygon>
</g>
</a>
<a xlink:href="/huff-hall/" target="---" xlink:title="Huff Hall">
<g>
<rect x="28.2704715254309" y="1166.1569504240247" width="48.29538885594446" height="62.43062461865975" class="image-mapper-shape" data-index="20"></rect>
</g>
</a>
<a xlink:href="/siebel-center-design/" target="---" xlink:title="Siebel Center for Design">
<g>
<polygon class="image-mapper-shape" data-index="21" points="18.847 1250.97 83.6335 1258.04 76.5659 1266.28 77.7438 1278.06 98.9466 1285.13 93.057 1294.55 23.5587 1285.13"></polygon>
</g>
</a>
<a xlink:href="#" target="---" xlink:title="">
<g>
<polygon class="image-mapper-shape" data-index="22" points="129.573 1333.42 146.064 1332.25 187.292 1316.93 188.47 1328.71 173.157 1327.53 175.513 1361.69 129.573 1360.52"></polygon>
</g>
</a>
<a xlink:href="/art-design-building" target="---" xlink:title="Art and Design Building">
<g>
<polygon class="image-mapper-shape" data-index="23" points="32.9822 1347.56 126.039 1347.56 128.395 1356.98 102.48 1356.98 102.48 1364.05 32.9822 1364.05"></polygon>
</g>
</a>
<a xlink:href="/stock-pavilion/" target="---" xlink:title="Stock Pavilion">
<g>
<polygon class="image-mapper-shape" data-index="24" points="429.947 1417.06 467.641 1415.88 481.776 1434.73 471.175 1446.51 468.819 1492.45 420.523 1493.62 419.345 1450.04 419.345 1426.48"></polygon>
</g>
</a>
<a xlink:href="#" target="---" xlink:title="">
<g>
<polygon class="image-mapper-shape" data-index="25"></polygon>
</g>
</a>
<a xlink:href="/education-building/" target="---" xlink:title="Education Building">
<g>
<rect x="261.50186161023584" y="1289.8402633477847" width="24.736662584752025" height="80.0996693220543" class="image-mapper-shape" data-index="26"></rect>
</g>
</a>
<a xlink:href="/temple-hoyne-buell-hall/" target="---" xlink:title="Temple Hoyne Buell Hall">
<g>
<polygon class="image-mapper-shape" data-index="33" points="358.093 1274.53 356.915 1288.66 382.829 1291.02 386.363 1345.2 409.922 1345.2 406.388 1282.77 398.142 1272.17"></polygon>
</g>
</a>
<a xlink:href="/architecture-building/" target="---" xlink:title="Architecture Building">
<g>
<polygon class="image-mapper-shape" data-index="34" points="310.975 1197.96 323.932 1197.96 323.932 1217.99 349.847 1217.99 349.847 1226.23 283.883 1229.77 285.061 1214.45 307.441 1215.63"></polygon>
</g>
</a>
<a xlink:href="/david-kinley-hall/" target="---" xlink:title="David Kinley Hall">
<g>
<rect x="363.98232088992285" y="1150.8437783477495" width="12.957299449155812" height="78.92173300849481" class="image-mapper-shape" data-index="35"></rect>
</g>
</a>
<a xlink:href="/wohlers-hall/" target="---" xlink:title="Wohlers Hall">
<g>
<rect x="253.2563074153185" y="1152.0217146613093" width="16.491108389834636" height="80.09966932205384" class="image-mapper-shape" data-index="39"></rect>
</g>
</a>
<a xlink:href="/engineering-sciences-building/" target="---" xlink:title="Engineering Sciences Building">
<g>
<rect x="502.9788058899581" y="1300.4416901698214" width="21.202853644073173" height="193.1815554237778" class="image-mapper-shape" data-index="40"></rect>
</g>
</a>
<a xlink:href="/architecture-annex/" target="---" xlink:title="Architecture Annex">
<g>
<polygon class="image-mapper-shape" data-index="41" points="567.765 1333.42 566.587 1378.19 600.747 1378.19 601.925 1385.25 610.171 1385.25 611.349 1361.69 592.502 1359.34 591.324 1333.42"></polygon>
</g>
</a>
<a xlink:href="/mumford-hall/" target="---" xlink:title="Mumford Hall">
<g>
<polygon class="image-mapper-shape" data-index="42" points="531.249 1155.56 551.274 1155.56 551.274 1163.8 539.495 1163.8 538.317 1216.81 553.63 1217.99 553.63 1228.59 531.249 1228.59"></polygon>
</g>
</a>
<a xlink:href="/animal-sciences-laboratory/" target="---" xlink:title="Animal Sciences Laboratory">
<g>
<polygon class="image-mapper-shape" data-index="43" points="567.765 1157.91 630.196 1156.73 630.196 1179.11 572.477 1182.65"></polygon>
</g>
</a>
<a xlink:href="/plant-sciences-laboratory/" target="---" xlink:title="Plant Sciences Laboratory">
<g>
<polygon class="image-mapper-shape" data-index="44" points="816.31 1278.06 762.125 1276.88 760.947 1289.84 730.32 1292.2 731.498 1373.47 786.861 1372.3 789.217 1347.56 819.844 1347.56"></polygon>
</g>
</a>
<a xlink:href="/national-soybean-research-center/" target="---" xlink:title="National Soybean Research Center">
<g>
<rect x="751.5233680510381" y="1409.989767330866" width="62.43062461865986" height="15.313172076275123" class="image-mapper-shape" data-index="46"></rect>
</g>
</a>
<a xlink:href="/national-soybean-research-center/" target="---" xlink:title="National Soybean Research Center">
<g>
<rect x="802.1746295341018" y="1428.83674834782" width="16.49110838983472" height="64.78649724577917" class="image-mapper-shape" data-index="47"></rect>
</g>
</a>
<a xlink:href="/gregory-hall/" target="---" xlink:title="Gregory Hall">
<g>
<rect x="361.6264482628036" y="980.0430128816046" width="56.54094305086181" height="35.33808940678853" class="image-mapper-shape" data-index="48"></rect>
</g>
</a>
<a xlink:href="/smith-hall/" target="---" xlink:title="Smith Hall">
<g>
<rect x="506.51261483063695" y="978.865076568045" width="54.185070423742445" height="35.33808940678853" class="image-mapper-shape" data-index="50"></rect>
</g>
</a>
<a xlink:href="/bevier-hall/" target="---" xlink:title="Bevier Hall">
<g>
<rect x="643.1532272035529" y="1041.2957011867047" width="32.98221677966944" height="85.9893508898524" class="image-mapper-shape" data-index="51"></rect>
</g>
</a>
<a xlink:href="/freer-hall/" target="---" xlink:title="Freer Hall">
<g>
<polygon class="image-mapper-shape" data-index="52" points="755.057 1117.86 776.26 1116.68 776.26 1062.5 800.997 1067.21 798.641 1038.94 783.328 1038.94 782.15 1048.36 755.057 1048.36"></polygon>
</g>
</a>
<a xlink:href="/government-public-affairs/" target="---" xlink:title="Government and Public Affairs">
<g>
<rect x="866.9611267798809" y="989.4665033900815" width="16.491108389834608" height="28.270471525430935" class="image-mapper-shape" data-index="54"></rect>
</g>
</a>
<a xlink:href="/child-development-lab/" target="---" xlink:title="Early Child Development Lab">
<g>
<polygon class="image-mapper-shape" data-index="55" points="889.342 985.933 889.342 1038.94 941.171 1036.58 938.815 1022.45 904.655 1022.45 903.477 985.933"></polygon>
</g>
</a>
<a xlink:href="/dance-studio/" target="---" xlink:title="Dance Studio">
<g>
<rect x="938.8152419070178" y="1007.1355480934758" width="28.27047152543082" height="10.601426822036615" class="image-mapper-shape" data-index="57"></rect>
</g>
</a>
<a xlink:href="/music-building/" target="---" xlink:title="Music Building">
<g>
<rect x="726.7867054662861" y="897.5874709324311" width="55.36300673730216" height="56.540943050861756" class="image-mapper-shape" data-index="58"></rect>
</g>
</a>
<a xlink:href="/lincoln-hall/" target="---" xlink:title="Lincoln Hall">
<g>
<rect x="359.27057563568434" y="879.9184262290368" width="53.00713411018296" height="58.89681567798107" class="image-mapper-shape" data-index="59"></rect>
</g>
</a>
<a xlink:href="/english-building/" target="---" xlink:title="English Building">
<g>
<rect x="368.6940661441613" y="795.1070116527441" width="42.405707288146345" height="47.117452542384854" class="image-mapper-shape" data-index="60"></rect>
</g>
</a>
<a xlink:href="/henry-administration-building/" target="---" xlink:title="Henry Administration Building">
<g>
<rect x="356.9147030085651" y="717.3632149578091" width="56.54094305086181" height="48.29538885594445" class="image-mapper-shape" data-index="61"></rect>
</g>
</a>
<a xlink:href="/illini-union/" target="---" xlink:title="Illini Union">
<g>
<polygon class="image-mapper-shape" data-index="63" points="422.879 603.103 422.879 629.018 437.014 631.374 440.548 663.178 424.057 663.178 422.879 686.737 438.192 689.093 482.954 685.559 481.776 634.908 493.555 632.552 493.555 603.103"></polygon>
</g>
</a>
<a xlink:href="/natural-history-building/" target="---" xlink:title="Natural History Building">
<g>
<rect x="527.7154684747102" y="604.2813288560855" width="37.69396203390784" height="73.03205144069648" class="image-mapper-shape" data-index="64"></rect>
</g>
</a>
<a xlink:href="/noyes-laboratory/" target="---" xlink:title="Noyes Laboratory">
<g>
<rect x="513.5802327119947" y="712.6514697035706" width="49.47332516950405" height="54.18507042374256" class="image-mapper-shape" data-index="65"></rect>
</g>
</a>
<a xlink:href="/chemistry-annex/" target="---" xlink:title="Chemistry Annex">
<g>
<rect x="510.0464237713158" y="792.7511390256249" width="54.185070423742616" height="9.423490508476903" class="image-mapper-shape" data-index="68"></rect>
</g>
</a>
<a xlink:href="/davenport-hall/" target="---" xlink:title="Davenport Hall">
<g>
<polygon class="image-mapper-shape" data-index="69" points="545.385 901.121 533.605 901.121 533.605 878.74 521.826 876.385 521.826 886.986 502.979 884.63 505.335 829.267 520.648 824.555 530.071 833.979 531.249 803.353 545.385 803.353 544.207 830.445 554.808 842.224 554.808 866.961"></polygon>
</g>
</a>
<a xlink:href="#" target="---" xlink:title="">
<g>
<polygon class="image-mapper-shape" data-index="70"></polygon>
</g>
</a>
<a xlink:href="/campus-instructional-facility/" target="---" xlink:title="Campus Instructional Facility">
<g>
<rect x="360.448511949244" y="346.3132761865285" width="54.18507042374256" height="34.160153093228985" class="image-mapper-shape" data-index="72"></rect>
</g>
</a>
<a xlink:href="/talbot-laboratory/" target="---" xlink:title="Talbot Laboratory">
<g>
<rect x="361.6264482628036" y="391.0748561017941" width="51.829197796623305" height="47.1174525423848" class="image-mapper-shape" data-index="74"></rect>
</g>
</a>
<a xlink:href="/everitt-laboratory/" target="---" xlink:title="Everitt Laboratory">
<g>
<rect x="359.27057563568434" y="488.84357012724263" width="55.363006737302214" height="36.51602572034824" class="image-mapper-shape" data-index="75"></rect>
</g>
</a>
<a xlink:href="/materials-science-engineering-building/" target="---" xlink:title="Materials Science and Engineering Building">
<g>
<rect x="520.6478505933524" y="486.4876975001234" width="45.939516228825255" height="38.87189834746749" class="image-mapper-shape" data-index="78"></rect>
</g>
</a>
<a xlink:href="/mechanical-engineering-lab/" target="---" xlink:title="Mechanical Engineering Lab">
<g>
<rect x="520.6478505933524" y="395.7866013560326" width="45.939516228825255" height="57.71887936442141" class="image-mapper-shape" data-index="79"></rect>
</g>
</a>
<a xlink:href="/burrill-hall/" target="---" xlink:title="Burrill Hall">
<g>
<rect x="594.8578383476085" y="640.7973545764337" width="93.05696877121" height="111.90394978816403" class="image-mapper-shape" data-index="82"></rect>
</g>
</a>
<a xlink:href="/roger-adams-laboratory/" target="---" xlink:title="Roger Adams Laboratory">
<g>
<rect x="597.2137109747277" y="769.1924127544324" width="82.4555419491735" height="77.74379669493487" class="image-mapper-shape" data-index="85"></rect>
</g>
</a>
<a xlink:href="/transportation-building/" target="---" xlink:title="Transportation Building">
<g>
<rect x="601.9254562289663" y="409.92183711874804" width="20.024917330513517" height="48.29538885594445" class="image-mapper-shape" data-index="86"></rect>
</g>
</a>
<a xlink:href="/nuclear-radiations-laboratory/" target="---" xlink:title="Nuclear Radiations Laboratory">
<g>
<rect x="638.4414819493145" y="471.1745254238483" width="47.117452542384854" height="16.49110838983472" class="image-mapper-shape" data-index="88"></rect>
</g>
</a>
<a xlink:href="#" target="---" xlink:title="">
<g>
<polygon class="image-mapper-shape" data-index="90"></polygon>
</g>
</a>
<a xlink:href="/ceramics-kiln-house/" target="---" xlink:title="Ceramics Kiln House">
<g>
<polygon class="image-mapper-shape" data-index="91" points="629.018 420.523 631.374 458.217 665.534 458.217 663.178 422.879"></polygon>
</g>
</a>
<a xlink:href="#" target="---" xlink:title="">
<g>
<polygon class="image-mapper-shape" data-index="93"></polygon>
</g>
</a>
<a xlink:href="/ceramics-building/" target="---" xlink:title="Ceramics Building">
<g>
<rect x="670.2457624154242" y="412.2777097458673" width="15.313172076275123" height="32.982216779669386" class="image-mapper-shape" data-index="95"></rect>
</g>
</a>
<a xlink:href="/krannert-center-performing-arts/" target="---" xlink:title="Krannert Center for Performing Arts">
<g>
<rect x="718.5411512713687" y="704.4059155086533" width="137.81854868647565" height="153.13172076275066" class="image-mapper-shape" data-index="98"></rect>
</g>
</a>
<a xlink:href="/spurlock-museum/" target="---" xlink:title="Spurlock Museum">
<g>
<rect x="911.7227066951465" y="791.5732027120652" width="31.804280466109844" height="51.82919779662336" class="image-mapper-shape" data-index="100"></rect>
</g>
</a>
<a xlink:href="/astronomy-building/" target="---" xlink:title="Astronomy Building">
<g>
<rect x="898.7654072459907" y="507.69055114419655" width="20.024917330513517" height="20.02491733051363" class="image-mapper-shape" data-index="101"></rect>
</g>
</a>
<a xlink:href="/engineering-sciences-building/" target="---" xlink:title="Engineering Sciences Building">
<g>
<rect x="718.5411512713687" y="353.38089406788623" width="95.4128413983293" height="24.736662584752025" class="image-mapper-shape" data-index="102"></rect>
</g>
</a>
<a xlink:href="/loomis-laboratory/" target="---" xlink:title="Loomis Laboratory">
<g>
<rect x="715.0073423306899" y="485.3097611865638" width="73.03205144069648" height="41.22777097458669" class="image-mapper-shape" data-index="106"></rect>
</g>
</a>
<a xlink:href="/campbell-hall/" target="---" xlink:title="Campbell Hall">
<g>
<rect x="711" y="94" width="50" height="28" class="image-mapper-shape" data-index="107"></rect>
</g>
</a>
</svg>